<svg xmlns="http://www.w3.org/2000/svg" >
  <defs>
    <symbol id="radio-checked" viewBox="0 0 20 20" >
      <rect x="1" y="0.999985" width="18" height="18" rx="9" fill="none" stroke="#F4C550" stroke-width="2"/>
      <rect x="5" y="4.99998" width="10" height="10" rx="5" fill="#F4C550"/>
    </symbol>
    <symbol id="close" viewBox="0 0 32 32">
      <path d="M24 8L8 24" fill="none" stroke="#121417" stroke-width="2.5" stroke-linecap="round" stroke-linejoin="round"/>
      <path d="M8 8L24 24" fill="none" stroke="#121417" stroke-width="2.5" stroke-linecap="round" stroke-linejoin="round"/>
    </symbol>
    <symbol id="close-hover" viewBox="0 0 32 32">
      <path d="M24 8L8 24" fill="none" stroke="#fff" stroke-width="2.5" stroke-linecap="round" stroke-linejoin="round"/>
      <path d="M8 8L24 24" fill="none" stroke="#fff" stroke-width="2.5" stroke-linecap="round" stroke-linejoin="round"/>
    </symbol>
    <symbol id="up" viewBox="0 0 20 20">
      <path d="M5 7.5L10 12.5L15 7.5" fill="none" stroke="#121417" stroke-width="2" stroke-linecap="round" stroke-linejoin="round" />
    </symbol>
    <symbol id="down" viewBox="0 0 20 20">
      <path d="M5 12.5L10 7.5L15 12.5" fill="none" stroke="#121417" stroke-width="2" stroke-linecap="round" stroke-linejoin="round" />
    </symbol>
    <symbol id="visible" viewBox="0 0 20 20">
      <path d="M0.833374 10C0.833374 10 4.16671 3.33334 10 3.33334C15.8334 3.33334 19.1667 10 19.1667 10C19.1667 10 15.8334 16.6667 10 16.6667C4.16671 16.6667 0.833374 10 0.833374 10Z" fill="none" stroke="#191A15" stroke-width="2" stroke-linecap="round" stroke-linejoin="round"/>
      <path d="M10 12.5C11.3807 12.5 12.5 11.3807 12.5 10C12.5 8.61929 11.3807 7.5 10 7.5C8.61929 7.5 7.5 8.61929 7.5 10C7.5 11.3807 8.61929 12.5 10 12.5Z" fill="none" stroke="#191A15" stroke-width="2" stroke-linecap="round" stroke-linejoin="round"/>
      <path d="M14.9499 14.9499C13.5254 16.0358 11.7908 16.6373 9.99992 16.6666C4.16659 16.6666 0.833252 9.99994 0.833252 9.99994C1.86983 8.06819 3.30753 6.38045 5.04992 5.04994M8.24992 3.53327C8.82353 3.39901 9.41081 3.33189 9.99992 3.33327C15.8333 3.33327 19.1666 9.99994 19.1666 9.99994C18.6607 10.9463 18.0575 11.8372 17.3666 12.6583M11.7666 11.7666C11.5377 12.0122 11.2617 12.2092 10.955 12.3459C10.6484 12.4825 10.3173 12.556 9.98166 12.5619C9.64599 12.5678 9.31256 12.5061 9.00126 12.3803C8.68997 12.2546 8.40719 12.0675 8.16979 11.8301C7.9324 11.5927 7.74525 11.3099 7.61951 10.9986C7.49377 10.6873 7.43202 10.3539 7.43795 10.0182C7.44387 9.68252 7.51734 9.35148 7.65398 9.04481C7.79062 8.73815 7.98763 8.46215 8.23325 8.23327" fill="none" stroke="#121417" stroke-width="2" stroke-linecap="round" stroke-linejoin="round"/>
    </symbol>
    <symbol id="hidden" viewBox="0 0 20 20">
      <path d="M14.9499 14.9499C13.5254 16.0358 11.7908 16.6373 9.99992 16.6666C4.16659 16.6666 0.833252 9.99994 0.833252 9.99994C1.86983 8.06819 3.30753 6.38045 5.04992 5.04994M8.24992 3.53327C8.82353 3.39901 9.41081 3.33189 9.99992 3.33327C15.8333 3.33327 19.1666 9.99994 19.1666 9.99994C18.6607 10.9463 18.0575 11.8372 17.3666 12.6583M11.7666 11.7666C11.5377 12.0122 11.2617 12.2092 10.955 12.3459C10.6484 12.4825 10.3173 12.556 9.98166 12.5619C9.64599 12.5678 9.31256 12.5061 9.00126 12.3803C8.68997 12.2546 8.40719 12.0675 8.16979 11.8301C7.9324 11.5927 7.74525 11.3099 7.61951 10.9986C7.49377 10.6873 7.43202 10.3539 7.43795 10.0182C7.44387 9.68252 7.51734 9.35148 7.65398 9.04481C7.79062 8.73815 7.98763 8.46215 8.23325 8.23327" fill="none" stroke="#121417" stroke-width="2" stroke-linecap="round" stroke-linejoin="round"/>
      <path d="M0.833252 0.833374L19.1666 19.1667" fill="none" stroke="#121417" stroke-width="2" stroke-linecap="round" stroke-linejoin="round"/>
    </symbol>
  </defs>
</svg>